<svg xmlns="http://www.w3.org/2000/svg" width="1280" height="720" viewBox="0 0 1280 720">
  <defs>
    <marker id="arrowC" markerWidth="12" markerHeight="12" refX="10" refY="6" orient="auto" markerUnits="strokeWidth">
      <path d="M1,1 L11,6 L1,11 Z" fill="#D97757"/>
    </marker>
  </defs>
  <rect width="1280" height="720" fill="#FFFFFF"/>
  <path d="M0 0 H1280 V18 H0 Z" fill="#8F1D3A"/>
  <path d="M0 18 H1280 V28 H0 Z" fill="#F4511E"/>
  <path d="M0 692 H1280 V720 H0 Z" fill="#8F1D3A"/>

  <text x="64" y="78" font-family="'Styrene A','Helvetica Neue',Arial,sans-serif" font-size="31" font-weight="700" fill="#191919">Training controls noise and class imbalance</text>
  <line x1="64" y1="104" x2="1216" y2="104" stroke="#E2E8F0" stroke-width="1.5"/>

  <rect x="64" y="150" width="252" height="350" rx="8" fill="#FFFFFF" stroke="#E2E8F0" stroke-width="1.4"/>
  <rect x="64" y="150" width="252" height="48" rx="8" fill="#F8FAFC" stroke="#E2E8F0" stroke-width="1.4"/>
  <text x="190" y="181" text-anchor="middle" font-family="'Anthropic Sans','Helvetica Neue',Arial,sans-serif" font-size="20" font-weight="700" fill="#191919">raw runtime corpus</text>
  <text x="190" y="244" text-anchor="middle" font-family="Consolas,'Courier New',monospace" font-size="26" font-weight="700" fill="#8F1D3A">1,188,265</text>
  <text x="190" y="274" text-anchor="middle" font-family="'Anthropic Sans','Helvetica Neue',Arial,sans-serif" font-size="17" fill="#64748B">measured arrays</text>
  <line x1="96" y1="338" x2="284" y2="338" stroke="#E2E8F0" stroke-width="1.2"/>
  <text x="96" y="380" font-family="'Anthropic Sans','Helvetica Neue',Arial,sans-serif" font-size="17" fill="#191919">timsort</text>
  <rect x="170" y="365" width="74" height="18" rx="4" fill="#F4511E"/>
  <text x="284" y="380" text-anchor="end" font-family="Consolas,'Courier New',monospace" font-size="15" fill="#64748B">85.03%</text>
  <text x="96" y="420" font-family="'Anthropic Sans','Helvetica Neue',Arial,sans-serif" font-size="17" fill="#191919">heapsort</text>
  <rect x="170" y="405" width="28" height="18" rx="4" fill="#8F1D3A"/>
  <text x="284" y="420" text-anchor="end" font-family="Consolas,'Courier New',monospace" font-size="15" fill="#64748B">10.54%</text>
  <text x="96" y="460" font-family="'Anthropic Sans','Helvetica Neue',Arial,sans-serif" font-size="17" fill="#191919">introsort</text>
  <rect x="170" y="445" width="16" height="18" rx="4" fill="#D97757"/>
  <text x="284" y="460" text-anchor="end" font-family="Consolas,'Courier New',monospace" font-size="15" fill="#64748B">4.43%</text>

  <path d="M338 325 H402" stroke="#D97757" stroke-width="3" marker-end="url(#arrowC)"/>

  <rect x="424" y="150" width="252" height="350" rx="8" fill="#F8FAFC" stroke="#E2E8F0" stroke-width="1.4"/>
  <rect x="424" y="150" width="252" height="48" rx="8" fill="#FFFFFF" stroke="#E2E8F0" stroke-width="1.4"/>
  <text x="550" y="181" text-anchor="middle" font-family="'Anthropic Sans','Helvetica Neue',Arial,sans-serif" font-size="20" font-weight="700" fill="#191919">near-tie filter</text>
  <text x="550" y="244" text-anchor="middle" font-family="Consolas,'Courier New',monospace" font-size="26" font-weight="700" fill="#8F1D3A">1,082,547</text>
  <text x="550" y="274" text-anchor="middle" font-family="'Anthropic Sans','Helvetica Neue',Arial,sans-serif" font-size="17" fill="#64748B">kept after label filter</text>
  <rect x="458" y="337" width="184" height="72" rx="8" fill="#FFFFFF" stroke="#E2E8F0" stroke-width="1.2"/>
  <text x="550" y="369" text-anchor="middle" font-family="Consolas,'Courier New',monospace" font-size="18" fill="#191919">margin ≥ 5%</text>
  <text x="550" y="397" text-anchor="middle" font-family="'Anthropic Sans','Helvetica Neue',Arial,sans-serif" font-size="16" fill="#64748B">or n ≥ 2000</text>
  <text x="550" y="456" text-anchor="middle" font-family="'Anthropic Sans','Helvetica Neue',Arial,sans-serif" font-size="17" fill="#64748B">removes unstable labels</text>

  <path d="M698 325 H762" stroke="#D97757" stroke-width="3" marker-end="url(#arrowC)"/>

  <rect x="784" y="150" width="252" height="350" rx="8" fill="#FFFFFF" stroke="#E2E8F0" stroke-width="1.4"/>
  <rect x="784" y="150" width="252" height="48" rx="8" fill="#F8FAFC" stroke="#E2E8F0" stroke-width="1.4"/>
  <text x="910" y="181" text-anchor="middle" font-family="'Anthropic Sans','Helvetica Neue',Arial,sans-serif" font-size="20" font-weight="700" fill="#191919">balanced pool</text>
  <text x="910" y="244" text-anchor="middle" font-family="Consolas,'Courier New',monospace" font-size="26" font-weight="700" fill="#8F1D3A">196,624</text>
  <text x="910" y="274" text-anchor="middle" font-family="'Anthropic Sans','Helvetica Neue',Arial,sans-serif" font-size="17" fill="#64748B">rows after undersampling</text>
  <rect x="810" y="331" width="200" height="34" rx="17" fill="#F8FAFC" stroke="#E2E8F0" stroke-width="1.2"/>
  <text x="910" y="354" text-anchor="middle" font-family="'Anthropic Sans','Helvetica Neue',Arial,sans-serif" font-size="16" fill="#191919">3× minority cap</text>
  <rect x="810" y="383" width="200" height="34" rx="17" fill="#F8FAFC" stroke="#E2E8F0" stroke-width="1.2"/>
  <text x="910" y="406" text-anchor="middle" font-family="'Anthropic Sans','Helvetica Neue',Arial,sans-serif" font-size="16" fill="#191919">inverse-frequency weights</text>
  <rect x="810" y="435" width="200" height="34" rx="17" fill="#F8FAFC" stroke="#E2E8F0" stroke-width="1.2"/>
  <text x="910" y="458" text-anchor="middle" font-family="'Anthropic Sans','Helvetica Neue',Arial,sans-serif" font-size="16" fill="#191919">seed 42</text>

  <path d="M1058 325 H1122" stroke="#D97757" stroke-width="3" marker-end="url(#arrowC)"/>

  <rect x="1144" y="150" width="72" height="350" rx="8" fill="#F8FAFC" stroke="#E2E8F0" stroke-width="1.4"/>
  <text x="1180" y="181" text-anchor="middle" font-family="'Anthropic Sans','Helvetica Neue',Arial,sans-serif" font-size="18" font-weight="700" fill="#191919">split</text>
  <rect x="1160" y="230" width="40" height="146" rx="6" fill="#8F1D3A"/>
  <rect x="1160" y="382" width="40" height="32" rx="6" fill="#D97757"/>
  <rect x="1160" y="420" width="40" height="32" rx="6" fill="#F4511E"/>
  <text x="1180" y="292" text-anchor="middle" font-family="Consolas,'Courier New',monospace" font-size="15" fill="#FFFFFF" transform="rotate(-90 1180 292)">137,636</text>
  <text x="1180" y="404" text-anchor="middle" font-family="Consolas,'Courier New',monospace" font-size="15" fill="#FFFFFF">29k</text>
  <text x="1180" y="442" text-anchor="middle" font-family="Consolas,'Courier New',monospace" font-size="15" fill="#FFFFFF">29k</text>
  <text x="1180" y="476" text-anchor="middle" font-family="'Anthropic Sans','Helvetica Neue',Arial,sans-serif" font-size="15" fill="#64748B">70/15/15</text>

  <rect x="466" y="548" width="348" height="42" rx="8" fill="#FFFFFF" stroke="#E2E8F0" stroke-width="1.2"/>
  <text x="640" y="575" text-anchor="middle" font-family="'Anthropic Sans','Helvetica Neue',Arial,sans-serif" font-size="17" fill="#64748B">stratified train / validation / test</text>
</svg>
