<svg xmlns="http://www.w3.org/2000/svg" width="1280" height="720" viewBox="0 0 1280 720">
  <defs>
    <marker id="arrowB" markerWidth="12" markerHeight="12" refX="10" refY="6" orient="auto" markerUnits="strokeWidth">
      <path d="M1,1 L11,6 L1,11 Z" fill="#D97757"/>
    </marker>
  </defs>
  <rect width="1280" height="720" fill="#FFFFFF"/>
  <path d="M0 0 H1280 V18 H0 Z" fill="#8F1D3A"/>
  <path d="M0 18 H1280 V28 H0 Z" fill="#F4511E"/>
  <path d="M0 692 H1280 V720 H0 Z" fill="#8F1D3A"/>

  <text x="64" y="78" font-family="'Styrene A','Helvetica Neue',Arial,sans-serif" font-size="31" font-weight="700" fill="#191919">XGBoost fits the tabular structure of the problem</text>
  <line x1="64" y1="104" x2="1216" y2="104" stroke="#E2E8F0" stroke-width="1.5"/>

  <rect x="68" y="154" width="294" height="392" rx="8" fill="#F8FAFC" stroke="#E2E8F0" stroke-width="1.4"/>
  <rect x="68" y="154" width="294" height="48" rx="8" fill="#FFFFFF" stroke="#E2E8F0" stroke-width="1.4"/>
  <text x="215" y="185" text-anchor="middle" font-family="'Anthropic Sans','Helvetica Neue',Arial,sans-serif" font-size="20" font-weight="700" fill="#191919">16 structural features</text>
  <text x="95" y="238" font-family="'Anthropic Sans','Helvetica Neue',Arial,sans-serif" font-size="17" fill="#191919">scale</text>
  <text x="95" y="282" font-family="'Anthropic Sans','Helvetica Neue',Arial,sans-serif" font-size="17" fill="#191919">order</text>
  <text x="95" y="326" font-family="'Anthropic Sans','Helvetica Neue',Arial,sans-serif" font-size="17" fill="#191919">runs</text>
  <text x="95" y="370" font-family="'Anthropic Sans','Helvetica Neue',Arial,sans-serif" font-size="17" fill="#191919">duplicates</text>
  <text x="95" y="414" font-family="'Anthropic Sans','Helvetica Neue',Arial,sans-serif" font-size="17" fill="#191919">entropy</text>
  <text x="95" y="458" font-family="'Anthropic Sans','Helvetica Neue',Arial,sans-serif" font-size="17" fill="#191919">spread / outliers</text>
  <rect x="222" y="222" width="92" height="20" rx="4" fill="#D97757"/>
  <rect x="222" y="266" width="62" height="20" rx="4" fill="#D97757"/>
  <rect x="222" y="310" width="108" height="20" rx="4" fill="#D97757"/>
  <rect x="222" y="354" width="78" height="20" rx="4" fill="#D97757"/>
  <rect x="222" y="398" width="116" height="20" rx="4" fill="#D97757"/>
  <rect x="222" y="442" width="96" height="20" rx="4" fill="#D97757"/>
  <text x="95" y="508" font-family="Consolas,'Courier New',monospace" font-size="18" fill="#8F1D3A">f(x) ∈ R^16</text>

  <path d="M388 350 H466" stroke="#D97757" stroke-width="3" marker-end="url(#arrowB)"/>

  <rect x="490" y="148" width="318" height="404" rx="10" fill="#FFFFFF" stroke="#E2E8F0" stroke-width="1.5"/>
  <rect x="490" y="148" width="318" height="48" rx="10" fill="#F8FAFC" stroke="#E2E8F0" stroke-width="1.5"/>
  <text x="649" y="181" text-anchor="middle" font-family="'Anthropic Sans','Helvetica Neue',Arial,sans-serif" font-size="20" font-weight="700" fill="#191919">boosted tree ensemble</text>
  <path d="M590 246 V330" stroke="#191919" stroke-width="3" stroke-linecap="round"/>
  <path d="M590 278 L546 330" stroke="#191919" stroke-width="3" stroke-linecap="round"/>
  <path d="M590 278 L634 330" stroke="#191919" stroke-width="3" stroke-linecap="round"/>
  <circle cx="590" cy="246" r="17" fill="#191919"/>
  <circle cx="546" cy="330" r="15" fill="#F8FAFC" stroke="#8F1D3A" stroke-width="2"/>
  <circle cx="634" cy="330" r="15" fill="#F8FAFC" stroke="#8F1D3A" stroke-width="2"/>

  <path d="M694 234 V344" stroke="#191919" stroke-width="3" stroke-linecap="round"/>
  <path d="M694 270 L650 344" stroke="#191919" stroke-width="3" stroke-linecap="round"/>
  <path d="M694 270 L738 344" stroke="#191919" stroke-width="3" stroke-linecap="round"/>
  <circle cx="694" cy="234" r="17" fill="#191919"/>
  <circle cx="650" cy="344" r="15" fill="#F8FAFC" stroke="#8F1D3A" stroke-width="2"/>
  <circle cx="738" cy="344" r="15" fill="#F8FAFC" stroke="#8F1D3A" stroke-width="2"/>

  <path d="M638 378 V468" stroke="#191919" stroke-width="3" stroke-linecap="round"/>
  <path d="M638 414 L594 468" stroke="#191919" stroke-width="3" stroke-linecap="round"/>
  <path d="M638 414 L682 468" stroke="#191919" stroke-width="3" stroke-linecap="round"/>
  <circle cx="638" cy="378" r="17" fill="#191919"/>
  <circle cx="594" cy="468" r="15" fill="#F8FAFC" stroke="#8F1D3A" stroke-width="2"/>
  <circle cx="682" cy="468" r="15" fill="#F8FAFC" stroke="#8F1D3A" stroke-width="2"/>
  <text x="649" y="520" text-anchor="middle" font-family="'Anthropic Sans','Helvetica Neue',Arial,sans-serif" font-size="17" fill="#64748B">tree splits capture feature interactions</text>

  <path d="M832 350 H910" stroke="#D97757" stroke-width="3" marker-end="url(#arrowB)"/>

  <rect x="934" y="154" width="282" height="392" rx="8" fill="#F8FAFC" stroke="#E2E8F0" stroke-width="1.4"/>
  <rect x="934" y="154" width="282" height="48" rx="8" fill="#FFFFFF" stroke="#E2E8F0" stroke-width="1.4"/>
  <text x="1075" y="185" text-anchor="middle" font-family="'Anthropic Sans','Helvetica Neue',Arial,sans-serif" font-size="20" font-weight="700" fill="#191919">soft probability output</text>
  <text x="970" y="246" font-family="'Anthropic Sans','Helvetica Neue',Arial,sans-serif" font-size="18" fill="#191919">P(introsort)</text>
  <rect x="970" y="262" width="196" height="16" rx="8" fill="#E8EEF5"/>
  <rect x="970" y="262" width="58" height="16" rx="8" fill="#8F1D3A"/>
  <text x="1178" y="277" text-anchor="end" font-family="Consolas,'Courier New',monospace" font-size="16" fill="#64748B">0.18</text>
  <text x="970" y="326" font-family="'Anthropic Sans','Helvetica Neue',Arial,sans-serif" font-size="18" fill="#191919">P(heapsort)</text>
  <rect x="970" y="342" width="196" height="16" rx="8" fill="#E8EEF5"/>
  <rect x="970" y="342" width="76" height="16" rx="8" fill="#8F1D3A"/>
  <text x="1178" y="357" text-anchor="end" font-family="Consolas,'Courier New',monospace" font-size="16" fill="#64748B">0.24</text>
  <text x="970" y="406" font-family="'Anthropic Sans','Helvetica Neue',Arial,sans-serif" font-size="18" fill="#191919">P(timsort)</text>
  <rect x="970" y="422" width="196" height="16" rx="8" fill="#E8EEF5"/>
  <rect x="970" y="422" width="146" height="16" rx="8" fill="#F4511E"/>
  <text x="1178" y="437" text-anchor="end" font-family="Consolas,'Courier New',monospace" font-size="16" fill="#64748B">0.58</text>
  <rect x="987" y="482" width="176" height="38" rx="19" fill="#F4511E"/>
  <text x="1075" y="507" text-anchor="middle" font-family="'Anthropic Sans','Helvetica Neue',Arial,sans-serif" font-size="17" font-weight="700" fill="#FFFFFF">select timsort</text>

  <rect x="194" y="594" width="892" height="48" rx="8" fill="#191919"/>
  <text x="640" y="625" text-anchor="middle" font-family="Consolas,'Courier New',monospace" font-size="18" fill="#FFFFFF">multi:softprob | 500 trees | depth 7 | lr 0.05 | hist | mlogloss</text>
</svg>
