<svg xmlns="http://www.w3.org/2000/svg" width="1280" height="720" viewBox="0 0 1280 720">
  <rect width="1280" height="720" fill="#FFFFFF" />
  <g id="closing">
    <text fill="#172033" font-weight="700" font-family="Arial, 'Microsoft YaHei', sans-serif" font-size="52" x="86" y="115">The next step is hardware-aware</text><text fill="#172033" font-weight="700" font-family="Arial, 'Microsoft YaHei', sans-serif" font-size="52" x="86" y="175">and adaptive selection</text><rect x="86" y="200" width="210" height="5" fill="#0F766E" />
  </g>
  <g id="future-path">
    <path fill="#F6F8FB" stroke="#D8DEE8" d="M108,285 H397 A8,8 0 0 1 405,293 V427 A8,8 0 0 1 397,435 H108 A8,8 0 0 1 100,427 V293 A8,8 0 0 1 108,285 Z" /><text x="134" y="350" font-family="Arial, 'Microsoft YaHei', sans-serif" font-size="32" font-weight="700" fill="#173B6D">hardware context</text><text x="134" y="392" font-family="Arial, 'Microsoft YaHei', sans-serif" font-size="22" fill="#586174">cache, CPU, memory behavior</text>
    <path fill="#F6F8FB" stroke="#D8DEE8" d="M496,285 H785 A8,8 0 0 1 793,293 V427 A8,8 0 0 1 785,435 H496 A8,8 0 0 1 488,427 V293 A8,8 0 0 1 496,285 Z" /><text x="522" y="350" font-family="Arial, 'Microsoft YaHei', sans-serif" font-size="32" font-weight="700" fill="#173B6D">adaptive selection</text><text x="522" y="392" font-family="Arial, 'Microsoft YaHei', sans-serif" font-size="22" fill="#586174">future online learning</text>
    <path fill="#F6F8FB" stroke="#D8DEE8" d="M884,285 H1173 A8,8 0 0 1 1181,293 V427 A8,8 0 0 1 1173,435 H884 A8,8 0 0 1 876,427 V293 A8,8 0 0 1 884,285 Z" /><text x="910" y="350" font-family="Arial, 'Microsoft YaHei', sans-serif" font-size="32" font-weight="700" fill="#173B6D">broader portfolio</text><text x="910" y="392" font-family="Arial, 'Microsoft YaHei', sans-serif" font-size="22" fill="#586174">more algorithms, stricter splits</text>
  </g>
  <g id="questions">
  <g transform="translate(590, 515) scale(2.08333)" fill="none" stroke="#0F766E" stroke-width="2">
    <path d="M8 8a3.5 3 0 0 1 3.5 -3h1a3.5 3 0 0 1 3.5 3a3 3 0 0 1 -2 3a3 4 0 0 0 -2 4" />
    <path d="M12 19l0 .01" />
  </g><text x="465" y="610" font-family="Arial, 'Microsoft YaHei', sans-serif" font-size="52" font-weight="700" fill="#172033">Thank you</text><text x="465" y="650" font-family="Arial, 'Microsoft YaHei', sans-serif" font-size="30" fill="#586174">I am ready for your questions.</text></g>
</svg>