<svg xmlns="http://www.w3.org/2000/svg" width="1600" height="900" viewBox="0 0 1600 900">
  <defs>
    <filter id="softShadow" x="-20%" y="-20%" width="140%" height="140%">
      <feDropShadow dx="0" dy="8" stdDeviation="8" flood-color="#1b1f27" flood-opacity="0.10"/>
    </filter>
    <marker id="arrowOrange" viewBox="0 0 10 10" refX="8" refY="5" markerWidth="8" markerHeight="8" orient="auto">
      <path d="M 0 0 L 10 5 L 0 10 z" fill="#F4511E"/>
    </marker>
    <style>
      .title{font-family:Arial, Helvetica, sans-serif;font-size:45px;font-weight:800;fill:#1b1b1d;letter-spacing:0}
      .small{font-family:Arial, Helvetica, sans-serif;font-size:18px;fill:#566882;letter-spacing:0}
      .label{font-family:Arial, Helvetica, sans-serif;font-size:23px;font-weight:800;fill:#1b1b1d;letter-spacing:0}
      .body{font-family:Arial, Helvetica, sans-serif;font-size:19px;fill:#526278;letter-spacing:0}
      .mono{font-family:Menlo, Consolas, monospace;font-size:18px;fill:#1f2937}
      .monoSmall{font-family:Menlo, Consolas, monospace;font-size:15px;fill:#5d6c80}
      .card{fill:#ffffff;stroke:#dbe4ef;stroke-width:1.4;rx:12}
      .soft{fill:#f7f9fc;stroke:#dde6f0;stroke-width:1.2;rx:12}
      .chip{fill:#f6f8fb;stroke:#d8e0ea;stroke-width:1;rx:14}
    </style>
  </defs>

  <rect width="1600" height="900" fill="#ffffff"/>
  <rect x="0" y="0" width="1600" height="24" fill="#9A173D"/>
  <rect x="0" y="24" width="1600" height="8" fill="#F4511E"/>
  <rect x="0" y="860" width="1600" height="40" fill="#9A173D"/>

  <text x="64" y="94" class="title">Algorithm portfolio defines the selector’s decision space</text>
  <rect x="64" y="136" width="1472" height="5" fill="#d8e0ea"/>

  <g transform="translate(82,190)">
    <rect x="0" y="0" width="340" height="430" class="card" filter="url(#softShadow)"/>
    <text x="38" y="58" class="label">Introsort</text>
    <rect x="36" y="84" width="140" height="30" class="chip"/>
    <text x="54" y="105" class="small">hybrid default</text>
    <text x="38" y="154" class="body">Quicksort-style partitioning</text>
    <text x="38" y="186" class="body">with fallback protection.</text>

    <g transform="translate(42,270)">
      <line x1="0" y1="86" x2="250" y2="86" stroke="#d8e0ea" stroke-width="2"/>
      <path d="M5 74 C45 28, 92 18, 136 44 S220 72, 248 18" fill="none" stroke="#9A173D" stroke-width="5"/>
      <circle cx="5" cy="74" r="4" fill="#9A173D"/>
      <circle cx="136" cy="44" r="4" fill="#9A173D"/>
      <circle cx="248" cy="18" r="4" fill="#9A173D"/>
      <text x="0" y="146" class="monoSmall">baseline comparison behavior</text>
    </g>
  </g>

  <g transform="translate(630,190)">
    <rect x="0" y="0" width="340" height="430" class="card" filter="url(#softShadow)"/>
    <text x="38" y="58" class="label">Heapsort</text>
    <rect x="36" y="84" width="160" height="30" class="chip"/>
    <text x="54" y="105" class="small">worst-case bound</text>
    <text x="38" y="154" class="body">Consistent comparison sort</text>
    <text x="38" y="186" class="body">used as a measured class.</text>

    <g transform="translate(58,240)">
      <line x1="112" y1="20" x2="52" y2="82" stroke="#6c7d95" stroke-width="4"/>
      <line x1="112" y1="20" x2="172" y2="82" stroke="#6c7d95" stroke-width="4"/>
      <line x1="52" y1="82" x2="24" y2="134" stroke="#6c7d95" stroke-width="4"/>
      <line x1="52" y1="82" x2="82" y2="134" stroke="#6c7d95" stroke-width="4"/>
      <line x1="172" y1="82" x2="142" y2="134" stroke="#6c7d95" stroke-width="4"/>
      <line x1="172" y1="82" x2="202" y2="134" stroke="#6c7d95" stroke-width="4"/>
      <circle cx="112" cy="20" r="18" fill="#9A173D"/>
      <circle cx="52" cy="82" r="16" fill="#F4511E"/>
      <circle cx="172" cy="82" r="16" fill="#F4511E"/>
      <circle cx="24" cy="134" r="14" fill="#eef3f8" stroke="#cfd9e6"/>
      <circle cx="82" cy="134" r="14" fill="#eef3f8" stroke="#cfd9e6"/>
      <circle cx="142" cy="134" r="14" fill="#eef3f8" stroke="#cfd9e6"/>
      <circle cx="202" cy="134" r="14" fill="#eef3f8" stroke="#cfd9e6"/>
      <text x="3" y="180" class="monoSmall">robust comparison path</text>
    </g>
  </g>

  <g transform="translate(1178,190)">
    <rect x="0" y="0" width="340" height="430" class="card" filter="url(#softShadow)"/>
    <text x="38" y="58" class="label">Timsort</text>
    <rect x="36" y="84" width="142" height="30" rx="14" fill="#fff2ed" stroke="#ffd2c2"/>
    <text x="54" y="105" class="small" fill="#9A173D">run-adaptive</text>
    <text x="38" y="154" class="body">Exploits existing order and</text>
    <text x="38" y="186" class="body">natural runs in the input.</text>

    <g transform="translate(42,252)">
      <line x1="0" y1="105" x2="250" y2="105" stroke="#d8e0ea" stroke-width="2"/>
      <rect x="4" y="74" width="28" height="31" rx="3" fill="#dce5ef"/>
      <rect x="38" y="66" width="28" height="39" rx="3" fill="#dce5ef"/>
      <rect x="72" y="54" width="28" height="51" rx="3" fill="#dce5ef"/>
      <rect x="112" y="16" width="28" height="89" rx="3" fill="#F4511E"/>
      <rect x="146" y="22" width="28" height="83" rx="3" fill="#F4511E"/>
      <rect x="180" y="28" width="28" height="77" rx="3" fill="#F4511E"/>
      <rect x="222" y="93" width="20" height="12" rx="3" fill="#BA1734"/>
      <path d="M112 126 H208" stroke="#F4511E" stroke-width="5" stroke-linecap="round"/>
      <text x="20" y="162" class="monoSmall">natural runs become signal</text>
    </g>
  </g>

  <path d="M431 405 H585" stroke="#F4511E" stroke-width="4" marker-end="url(#arrowOrange)"/>
  <path d="M979 405 H1133" stroke="#F4511E" stroke-width="4" marker-end="url(#arrowOrange)"/>

  <g transform="translate(264,672)">
    <rect x="0" y="0" width="1072" height="108" class="soft"/>
    <text x="34" y="42" class="mono">A = { introsort, heapsort, timsort }</text>
    <text x="34" y="76" class="body">The trained selector predicts one action before sorting; measured runtimes define the oracle only for evaluation.</text>
  </g>

  <text x="1535" y="888" text-anchor="end" font-family="Arial, Helvetica, sans-serif" font-size="18" fill="#ffffff">12/24</text>
</svg>
