<svg xmlns="http://www.w3.org/2000/svg" width="1280" height="720" viewBox="0 0 1280 720">
  <rect width="1280" height="720" fill="#FFFFFF" />
  <rect x="0" y="0" width="1280" height="86" fill="#191919" />
  <rect x="0" y="0" width="10" height="86" fill="#D97757" />
  <text x="44" y="54" font-family="'Anthropic Sans', 'Helvetica Neue', Arial, 'Microsoft YaHei', sans-serif" font-size="21" fill="#FFFFFF">MSc Thesis Defense · June 2026</text>
  <text x="1028" y="54" text-anchor="end" font-family="'Anthropic Sans', 'Helvetica Neue', Arial, 'Microsoft YaHei', sans-serif" font-size="21" fill="#FFFFFF">Ahmed</text>

  <text x="72" y="190" font-family="'Styrene A', 'Helvetica Neue', Arial, 'Microsoft YaHei', sans-serif" font-size="58" font-weight="700" fill="#191919">Learning When to Use</text>
  <text x="72" y="258" font-family="'Styrene A', 'Helvetica Neue', Arial, 'Microsoft YaHei', sans-serif" font-size="58" font-weight="700" fill="#191919">Each Sorting Algorithm</text>
  <text x="76" y="320" font-family="'Anthropic Sans', 'Helvetica Neue', Arial, 'Microsoft YaHei', sans-serif" font-size="30" fill="#64748B">A machine learning selector for practical runtime behavior</text>

  <path fill="#F8FAFC" stroke="#E2E8F0" d="M78,402 H398 A6,6 0 0 1 404,408 V538 A6,6 0 0 1 398,544 H78 A6,6 0 0 1 72,538 V408 A6,6 0 0 1 78,402 Z" />
  <text x="96" y="456" font-family="'Styrene A', 'Helvetica Neue', Arial, 'Microsoft YaHei', sans-serif" font-size="58" font-weight="700" fill="#D97757">93.1%</text>
  <text x="98" y="496" font-family="'Anthropic Sans', 'Helvetica Neue', Arial, 'Microsoft YaHei', sans-serif" font-size="21" fill="#191919">runtime gap closed</text>

  <path fill="#F8FAFC" stroke="#E2E8F0" d="M480,402 H800 A6,6 0 0 1 806,408 V538 A6,6 0 0 1 800,544 H480 A6,6 0 0 1 474,538 V408 A6,6 0 0 1 480,402 Z" />
  <text x="498" y="456" font-family="'Styrene A', 'Helvetica Neue', Arial, 'Microsoft YaHei', sans-serif" font-size="58" font-weight="700" fill="#191919">76.1%</text>
  <text x="500" y="496" font-family="'Anthropic Sans', 'Helvetica Neue', Arial, 'Microsoft YaHei', sans-serif" font-size="21" fill="#191919">test accuracy</text>

  <path fill="#F8FAFC" stroke="#E2E8F0" d="M882,402 H1202 A6,6 0 0 1 1208,408 V538 A6,6 0 0 1 1202,544 H882 A6,6 0 0 1 876,538 V408 A6,6 0 0 1 882,402 Z" />
  <text x="900" y="456" font-family="'Styrene A', 'Helvetica Neue', Arial, 'Microsoft YaHei', sans-serif" font-size="58" font-weight="700" fill="#191919">89.6%</text>
  <text x="902" y="496" font-family="'Anthropic Sans', 'Helvetica Neue', Arial, 'Microsoft YaHei', sans-serif" font-size="21" fill="#191919">zero-regret decisions</text>

  <text x="72" y="625" font-family="'Anthropic Sans', 'Helvetica Neue', Arial, 'Microsoft YaHei', sans-serif" font-size="21" fill="#64748B">Cyprus International University · Computer Engineering</text>
  <text x="72" y="658" font-family="'Anthropic Sans', 'Helvetica Neue', Arial, 'Microsoft YaHei', sans-serif" font-size="21" fill="#64748B">Supervisor: Prof. Emre</text>
</svg>