<svg xmlns="http://www.w3.org/2000/svg" width="1280" height="720" viewBox="0 0 1280 720">
  <rect width="1280" height="720" fill="#FFFFFF" />
  <rect x="0" y="0" width="1280" height="70" fill="#191919" /><rect x="0" y="0" width="8" height="70" fill="#D97757" />
  <text x="40" y="44" font-family="'Styrene A', 'Helvetica Neue', Arial, 'Microsoft YaHei', sans-serif" font-size="30" font-weight="700" fill="#FFFFFF">Research objective</text>
  <rect x="0" y="70" width="1280" height="50" fill="#F8FAFC" /><rect x="40" y="86" width="4" height="18" fill="#D97757" />
  <text x="58" y="103" font-family="'Anthropic Sans', 'Helvetica Neue', Arial, 'Microsoft YaHei', sans-serif" font-size="21" fill="#191919">Build a selector that is cheap enough to run before sorting and close most of the practical runtime gap.</text>
  <text x="90" y="205" font-family="'Styrene A', 'Helvetica Neue', Arial, 'Microsoft YaHei', sans-serif" font-size="48" font-weight="700" fill="#191919">Can simple array structure predict</text>
  <text x="90" y="260" font-family="'Styrene A', 'Helvetica Neue', Arial, 'Microsoft YaHei', sans-serif" font-size="48" font-weight="700" fill="#191919">the best sorting algorithm?</text>

  <path fill="#F8FAFC" stroke="#E2E8F0" d="M98,340 H412 A8,8 0 0 1 420,348 V482 A8,8 0 0 1 412,490 H98 A8,8 0 0 1 90,482 V348 A8,8 0 0 1 98,340 Z" />
  <text x="118" y="392" font-family="'Anthropic Sans', 'Helvetica Neue', Arial, 'Microsoft YaHei', sans-serif" font-size="30" font-weight="700" fill="#191919">Accuracy</text>
  <text x="118" y="438" font-family="'Anthropic Sans', 'Helvetica Neue', Arial, 'Microsoft YaHei', sans-serif" font-size="24" fill="#64748B">Does the label match?</text>
  <path fill="#F8FAFC" stroke="#E2E8F0" d="M483,340 H797 A8,8 0 0 1 805,348 V482 A8,8 0 0 1 797,490 H483 A8,8 0 0 1 475,482 V348 A8,8 0 0 1 483,340 Z" />
  <text x="503" y="392" font-family="'Anthropic Sans', 'Helvetica Neue', Arial, 'Microsoft YaHei', sans-serif" font-size="30" font-weight="700" fill="#191919">Regret</text>
  <text x="503" y="438" font-family="'Anthropic Sans', 'Helvetica Neue', Arial, 'Microsoft YaHei', sans-serif" font-size="24" fill="#64748B">How costly is a mistake?</text>
  <path fill="#191919" d="M868,340 H1182 A8,8 0 0 1 1190,348 V482 A8,8 0 0 1 1182,490 H868 A8,8 0 0 1 860,482 V348 A8,8 0 0 1 868,340 Z" />
  <text x="888" y="392" font-family="'Anthropic Sans', 'Helvetica Neue', Arial, 'Microsoft YaHei', sans-serif" font-size="30" font-weight="700" fill="#FFFFFF">Runtime value</text>
  <text x="888" y="438" font-family="'Anthropic Sans', 'Helvetica Neue', Arial, 'Microsoft YaHei', sans-serif" font-size="24" fill="#FFFFFF">How close to VBS?</text>

  <text x="90" y="575" font-family="'Anthropic Sans', 'Helvetica Neue', Arial, 'Microsoft YaHei', sans-serif" font-size="30" fill="#191919">This is why the result is defended with both model accuracy and runtime regret.</text>
  <line x1="40" y1="666" x2="1240" y2="666" stroke="#E2E8F0" /><text x="40" y="696" font-family="'Anthropic Sans', 'Helvetica Neue', Arial, 'Microsoft YaHei', sans-serif" font-size="16" fill="#64748B">Research question</text><text x="1240" y="696" text-anchor="end" font-family="'Anthropic Sans', 'Helvetica Neue', Arial, 'Microsoft YaHei', sans-serif" font-size="16" fill="#64748B">06 / 22</text>
</svg>